<mxfile host="65bd71144e">
    <diagram id="KfypvnE8m9xCgyKcBrcm" name="第 1 页">
        <mxGraphModel dx="734" dy="734" grid="1" gridSize="10" guides="1" tooltips="1" connect="1" arrows="1" fold="1" page="1" pageScale="1" pageWidth="1654" pageHeight="1169" math="0" shadow="0">
            <root>
                <mxCell id="0"/>
                <mxCell id="1" parent="0"/>
                <mxCell id="T4Ntv8WteFEtjUYXqNdo-2" value="MySQL" style="rounded=0;whiteSpace=wrap;html=1;" parent="1" vertex="1">
                    <mxGeometry x="500" y="330" width="120" height="60" as="geometry"/>
                </mxCell>
                <mxCell id="T4Ntv8WteFEtjUYXqNdo-3" value="Redis" style="rounded=0;whiteSpace=wrap;html=1;" parent="1" vertex="1">
                    <mxGeometry x="630" y="330" width="120" height="60" as="geometry"/>
                </mxCell>
                <mxCell id="T4Ntv8WteFEtjUYXqNdo-4" value="Kafka" style="rounded=0;whiteSpace=wrap;html=1;" parent="1" vertex="1">
                    <mxGeometry x="760" y="330" width="120" height="60" as="geometry"/>
                </mxCell>
                <mxCell id="T4Ntv8WteFEtjUYXqNdo-6" value="MinIO" style="rounded=0;whiteSpace=wrap;html=1;" parent="1" vertex="1">
                    <mxGeometry x="760" y="400" width="120" height="60" as="geometry"/>
                </mxCell>
                <mxCell id="T4Ntv8WteFEtjUYXqNdo-7" value="SpringCloud Gateway" style="rounded=0;whiteSpace=wrap;html=1;" parent="1" vertex="1">
                    <mxGeometry x="500" y="400" width="120" height="60" as="geometry"/>
                </mxCell>
                <mxCell id="T4Ntv8WteFEtjUYXqNdo-11" value="Consul" style="rounded=0;whiteSpace=wrap;html=1;" parent="1" vertex="1">
                    <mxGeometry x="630" y="400" width="120" height="60" as="geometry"/>
                </mxCell>
                <mxCell id="T4Ntv8WteFEtjUYXqNdo-12" value="" style="endArrow=none;dashed=1;html=1;" parent="1" edge="1">
                    <mxGeometry width="50" height="50" relative="1" as="geometry">
                        <mxPoint x="480" y="310" as="sourcePoint"/>
                        <mxPoint x="920" y="310" as="targetPoint"/>
                    </mxGeometry>
                </mxCell>
                <mxCell id="T4Ntv8WteFEtjUYXqNdo-13" value="&lt;b&gt;&lt;i&gt;Middleware&lt;/i&gt;&lt;/b&gt;" style="text;html=1;strokeColor=none;fillColor=none;align=center;verticalAlign=middle;whiteSpace=wrap;rounded=0;" parent="1" vertex="1">
                    <mxGeometry x="1070" y="320" width="70" height="20" as="geometry"/>
                </mxCell>
                <mxCell id="T4Ntv8WteFEtjUYXqNdo-14" value="System" style="rounded=0;whiteSpace=wrap;html=1;" parent="1" vertex="1">
                    <mxGeometry x="500" y="230" width="120" height="60" as="geometry"/>
                </mxCell>
                <mxCell id="T4Ntv8WteFEtjUYXqNdo-15" value="Subscriber" style="rounded=0;whiteSpace=wrap;html=1;" parent="1" vertex="1">
                    <mxGeometry x="630" y="230" width="120" height="60" as="geometry"/>
                </mxCell>
                <mxCell id="T4Ntv8WteFEtjUYXqNdo-16" value="Upgrade" style="rounded=0;whiteSpace=wrap;html=1;" parent="1" vertex="1">
                    <mxGeometry x="630" y="160" width="120" height="60" as="geometry"/>
                </mxCell>
                <mxCell id="T4Ntv8WteFEtjUYXqNdo-17" value="Download Center" style="rounded=0;whiteSpace=wrap;html=1;" parent="1" vertex="1">
                    <mxGeometry x="760" y="230" width="120" height="60" as="geometry"/>
                </mxCell>
                <mxCell id="T4Ntv8WteFEtjUYXqNdo-19" value="Msg" style="rounded=0;whiteSpace=wrap;html=1;" parent="1" vertex="1">
                    <mxGeometry x="760" y="160" width="120" height="60" as="geometry"/>
                </mxCell>
                <mxCell id="T4Ntv8WteFEtjUYXqNdo-22" value="IAM" style="rounded=0;whiteSpace=wrap;html=1;" parent="1" vertex="1">
                    <mxGeometry x="500" y="160" width="120" height="60" as="geometry"/>
                </mxCell>
                <mxCell id="T4Ntv8WteFEtjUYXqNdo-23" value="" style="endArrow=none;dashed=1;html=1;" parent="1" edge="1">
                    <mxGeometry width="50" height="50" relative="1" as="geometry">
                        <mxPoint x="490" y="480" as="sourcePoint"/>
                        <mxPoint x="920" y="480" as="targetPoint"/>
                    </mxGeometry>
                </mxCell>
                <mxCell id="T4Ntv8WteFEtjUYXqNdo-24" value="&lt;b&gt;&lt;i&gt;Business App&lt;/i&gt;&lt;/b&gt;" style="text;html=1;strokeColor=none;fillColor=none;align=center;verticalAlign=middle;whiteSpace=wrap;rounded=0;" parent="1" vertex="1">
                    <mxGeometry x="1070" y="160" width="100" height="20" as="geometry"/>
                </mxCell>
                <mxCell id="T4Ntv8WteFEtjUYXqNdo-26" value="Rancher" style="rounded=0;whiteSpace=wrap;html=1;" parent="1" vertex="1">
                    <mxGeometry x="500" y="500" width="120" height="60" as="geometry"/>
                </mxCell>
                <mxCell id="T4Ntv8WteFEtjUYXqNdo-27" value="K3S" style="rounded=0;whiteSpace=wrap;html=1;" parent="1" vertex="1">
                    <mxGeometry x="630" y="500" width="120" height="60" as="geometry"/>
                </mxCell>
                <mxCell id="T4Ntv8WteFEtjUYXqNdo-28" value="&lt;b&gt;&lt;i&gt;Orchestration&lt;/i&gt;&lt;/b&gt;" style="text;html=1;strokeColor=none;fillColor=none;align=center;verticalAlign=middle;whiteSpace=wrap;rounded=0;" parent="1" vertex="1">
                    <mxGeometry x="1080" y="490" width="70" height="20" as="geometry"/>
                </mxCell>
                <mxCell id="T4Ntv8WteFEtjUYXqNdo-30" value="" style="endArrow=classic;html=1;" parent="1" edge="1">
                    <mxGeometry width="50" height="50" relative="1" as="geometry">
                        <mxPoint x="1220" y="535" as="sourcePoint"/>
                        <mxPoint x="1220" y="185" as="targetPoint"/>
                    </mxGeometry>
                </mxCell>
                <mxCell id="T4Ntv8WteFEtjUYXqNdo-34" value="&lt;b&gt;Startup Order&lt;/b&gt;" style="edgeLabel;html=1;align=center;verticalAlign=middle;resizable=0;points=[];" parent="T4Ntv8WteFEtjUYXqNdo-30" vertex="1" connectable="0">
                    <mxGeometry x="0.0629" y="1" relative="1" as="geometry">
                        <mxPoint as="offset"/>
                    </mxGeometry>
                </mxCell>
                <mxCell id="2" value="XXL-Job" style="rounded=0;whiteSpace=wrap;html=1;" vertex="1" parent="1">
                    <mxGeometry x="890" y="400" width="120" height="60" as="geometry"/>
                </mxCell>
                <mxCell id="3" value="BI" style="rounded=0;whiteSpace=wrap;html=1;" vertex="1" parent="1">
                    <mxGeometry x="890" y="330" width="120" height="60" as="geometry"/>
                </mxCell>
                <mxCell id="4" value="Report" style="rounded=0;whiteSpace=wrap;html=1;" vertex="1" parent="1">
                    <mxGeometry x="890" y="160" width="120" height="60" as="geometry"/>
                </mxCell>
            </root>
        </mxGraphModel>
    </diagram>
</mxfile>